/videos/63816e8a-93f9-5f91-9ffb-4f1059c4c1ef/live.m3u8

{"Protocol":1,"Id":"822b8468a9ad34b69e68baa123b2c60a","Path":"http://172.26.0.2:8096/LiveTv/LiveStreamFiles/cc2c3a236b2d44469e45c0be280f8225/stream.ts","EncoderPath":null,"EncoderProtocol":null,"Type":0,"Container":"mpegts","Size":null,"Name":null,"IsRemote":true,"ETag":null,"RunTimeTicks":null,"ReadAtNativeFramerate":false,"IgnoreDts":true,"IgnoreIndex":false,"GenPtsInput":false,"SupportsTranscoding":true,"SupportsDirectStream":true,"SupportsDirectPlay":true,"IsInfiniteStream":true,"RequiresOpening":true,"OpenToken":null,"RequiresClosing":true,"LiveStreamId":"a17c75760a04e99b68cf766e11316e1c_09efa0d56b934a82adec00a87b837fb0_822b8468a9ad34b69e68baa123b2c60a","BufferMs":null,"RequiresLooping":false,"SupportsProbing":true,"VideoType":null,"IsoType":null,"Video3DFormat":null,"MediaStreams":[{"Codec":"hevc","CodecTag":null,"Language":null,"ColorRange":"tv","ColorSpace":"bt709","ColorTransfer":"bt709","ColorPrimaries":"bt709","DvVersionMajor":null,"DvVersionMinor":null,"DvProfile":null,"DvLevel":null,"RpuPresentFlag":null,"ElPresentFlag":null,"BlPresentFlag":null,"DvBlSignalCompatibilityId":null,"Comment":null,"TimeBase":"1/90000","CodecTimeBase":null,"Title":null,"VideoRange":"SDR","VideoRangeType":"SDR","VideoDoViTitle":null,"LocalizedUndefined":null,"LocalizedDefault":null,"LocalizedForced":null,"LocalizedExternal":null,"DisplayTitle":"720p HEVC SDR","NalLengthSize":null,"IsInterlaced":false,"IsAVC":null,"ChannelLayout":null,"BitRate":8000000,"BitDepth":8,"RefFrames":1,"PacketLength":null,"Channels":null,"SampleRate":null,"IsDefault":false,"IsForced":false,"Height":720,"Width":1280,"AverageFrameRate":29.97003,"RealFrameRate":29.97003,"Profile":"Main","Type":1,"AspectRatio":"16:9","Index":-1,"Score":null,"IsExternal":false,"DeliveryMethod":null,"DeliveryUrl":null,"IsExternalUrl":null,"IsTextSubtitleStream":false,"SupportsExternalStream":false,"Path":null,"PixelFormat":"yuv420p","Level":93,"IsAnamorphic":false},{"Codec":"aac","CodecTag":null,"Language":null,"ColorRange":null,"ColorSpace":null,"ColorTransfer":null,"ColorPrimaries":null,"DvVersionMajor":null,"DvVersionMinor":null,"DvProfile":null,"DvLevel":null,"RpuPresentFlag":null,"ElPresentFlag":null,"BlPresentFlag":null,"DvBlSignalCompatibilityId":null,"Comment":null,"TimeBase":"1/90000","CodecTimeBase":null,"Title":null,"VideoRange":null,"VideoRangeType":null,"VideoDoViTitle":null,"LocalizedUndefined":null,"LocalizedDefault":null,"LocalizedForced":null,"LocalizedExternal":null,"DisplayTitle":"AAC - Stereo","NalLengthSize":null,"IsInterlaced":false,"IsAVC":null,"ChannelLayout":"stereo","BitRate":95992,"BitDepth":null,"RefFrames":null,"PacketLength":null,"Channels":2,"SampleRate":44100,"IsDefault":false,"IsForced":false,"Height":null,"Width":null,"AverageFrameRate":null,"RealFrameRate":null,"Profile":"LC","Type":0,"AspectRatio":null,"Index":-1,"Score":null,"IsExternal":false,"DeliveryMethod":null,"DeliveryUrl":null,"IsExternalUrl":null,"IsTextSubtitleStream":false,"SupportsExternalStream":false,"Path":null,"PixelFormat":null,"Level":0,"IsAnamorphic":null}],"MediaAttachments":[],"Formats":[],"Bitrate":8095992,"Timestamp":null,"RequiredHttpHeaders":{"User-Agent":"Mozilla/5.0 (Windows NT 10.0; Win64; x64) AppleWebKit/537.36 (KHTML, like Gecko) Chrome/64.0.3282.85 Safari/537.36"},"TranscodingUrl":null,"TranscodingSubProtocol":null,"TranscodingContainer":null,"AnalyzeDurationMs":3000,"DefaultAudioStreamIndex":null,"DefaultSubtitleStreamIndex":null}

/usr/lib/jellyfin-ffmpeg/ffmpeg -analyzeduration 3000000 -user_agent "Mozilla/5.0 (Windows NT 10.0; Win64; x64) AppleWebKit/537.36 (KHTML, like Gecko) Chrome/64.0.3282.85 Safari/537.36" -fflags +igndts -f mpegts -autorotate 0 -i "http://172.26.0.2:8096/LiveTv/LiveStreamFiles/cc2c3a236b2d44469e45c0be280f8225/stream.ts" -map_metadata -1 -map_chapters -1 -threads 0 -sn -codec:v:0 libx264 -preset superfast -crf 23 -maxrate 8000000 -bufsize 16000000 -x264opts:0 subme=0:me_range=4:rc_lookahead=10:me=dia:no_chroma_me:8x8dct=0:partitions=none -force_key_frames:0 "expr:gte(t,n_forced*3)" -sc_threshold:v:0 0 -vf "setparams=color_primaries=bt709:color_trc=bt709:colorspace=bt709,scale=trunc(min(max(iw\,ih*a)\,min(1280\,720*a))/2)*2:trunc(min(max(iw/a\,ih)\,min(1280/a\,720))/2)*2,format=yuv420p" -flags -global_header -codec:a:0 copy -copyts -avoid_negative_ts disabled -max_muxing_queue_size 2048 -f hls -max_delay 5000000 -hls_time 3 -hls_segment_type mpegts -start_number 0 -hls_base_url "hls/a51ccbe751c49b0872a61c95ecc7e747/" -hls_segment_filename "/config/data/transcodes/a51ccbe751c49b0872a61c95ecc7e747%d.ts" -hls_playlist_type event -hls_list_size 0 -y "/config/data/transcodes/a51ccbe751c49b0872a61c95ecc7e747.m3u8"


ffmpeg version 5.1.3-Jellyfin Copyright (c) 2000-2022 the FFmpeg developers
  built with gcc 11 (Ubuntu 11.3.0-1ubuntu1~22.04.1)
  configuration: --prefix=/usr/lib/jellyfin-ffmpeg --target-os=linux --extra-libs=-lfftw3f --extra-version=Jellyfin --disable-doc --disable-ffplay --disable-ptx-compression --disable-static --disable-libxcb --disable-sdl2 --disable-xlib --enable-lto --enable-gpl --enable-version3 --enable-shared --enable-gmp --enable-gnutls --enable-chromaprint --enable-libdrm --enable-libass --enable-libfreetype --enable-libfribidi --enable-libfontconfig --enable-libbluray --enable-libmp3lame --enable-libopus --enable-libtheora --enable-libvorbis --enable-libopenmpt --enable-libdav1d --enable-libwebp --enable-libvpx --enable-libx264 --enable-libx265 --enable-libzvbi --enable-libzimg --enable-libfdk-aac --arch=amd64 --enable-libsvtav1 --enable-libshaderc --enable-libplacebo --enable-vulkan --enable-opencl --enable-vaapi --enable-amf --enable-libmfx --enable-ffnvcodec --enable-cuda --enable-cuda-llvm --enable-cuvid --enable-nvdec --enable-nvenc
  libavutil      57. 28.100 / 57. 28.100
  libavcodec     59. 37.100 / 59. 37.100
  libavformat    59. 27.100 / 59. 27.100
  libavdevice    59.  7.100 / 59.  7.100
  libavfilter     8. 44.100 /  8. 44.100
  libswscale      6.  7.100 /  6.  7.100
  libswresample   4.  7.100 /  4.  7.100
  libpostproc    56.  6.100 / 56.  6.100
Input #0, mpegts, from 'http://172.26.0.2:8096/LiveTv/LiveStreamFiles/cc2c3a236b2d44469e45c0be280f8225/stream.ts':
  Duration: N/A, start: 31910.043378, bitrate: N/A
  Program 1 
    Metadata:
      service_name    : Service01
      service_provider: FFmpeg
  Stream #0:0[0x100]: Video: hevc (Main) ([36][0][0][0] / 0x0024), yuv420p(tv, bt709), 1280x720 [SAR 1:1 DAR 16:9], 29.97 fps, 29.97 tbr, 90k tbn
  Stream #0:1[0x101](por): Audio: aac (LC) ([15][0][0][0] / 0x000F), 44100 Hz, stereo, fltp, 96 kb/s
Stream mapping:
  Stream #0:0 -> #0:0 (hevc (native) -> h264 (libx264))
  Stream #0:1 -> #0:1 (copy)
Press [q] to stop, [?] for help
[libx264 @ 0x55b081357400] using SAR=1/1
[libx264 @ 0x55b081357400] using cpu capabilities: MMX2 SSE2Fast SSSE3 SSE4.2 AVX FMA3 BMI2 AVX2
[libx264 @ 0x55b081357400] profile Main, level 3.2, 4:2:0, 8-bit
Output #0, hls, to '/config/data/transcodes/a51ccbe751c49b0872a61c95ecc7e747.m3u8':
  Metadata:
    encoder         : Lavf59.27.100
  Stream #0:0: Video: h264, yuv420p(tv, bt709, progressive), 1280x720 [SAR 1:1 DAR 16:9], q=2-31, 29.97 fps, 90k tbn
    Metadata:
      encoder         : Lavc59.37.100 libx264
    Side data:
      cpb: bitrate max/min/avg: 8000000/0/0 buffer size: 16000000 vbv_delay: N/A
  Stream #0:1: Audio: aac (LC) ([15][0][0][0] / 0x000F), 44100 Hz, stereo, fltp, 96 kb/s
frame=    1 fps=0.0 q=0.0 size=N/A time=00:00:00.00 bitrate=N/A speed=   0x    
frame=    7 fps=0.0 q=0.0 size=N/A time=00:00:00.00 bitrate=N/A speed=   0x    
frame=   14 fps= 12 q=0.0 size=N/A time=00:00:00.23 bitrate=N/A speed=0.201x    
frame=   17 fps=9.5 q=0.0 size=N/A time=00:00:00.23 bitrate=N/A speed=0.13x    
frame=   21 fps=7.2 q=23.0 size=N/A time=00:00:00.46 bitrate=N/A speed=0.16x    
frame=   31 fps=8.8 q=24.0 size=N/A time=00:00:00.88 bitrate=N/A speed=0.25x    
frame=   44 fps= 11 q=22.0 size=N/A time=00:00:01.13 bitrate=N/A speed=0.283x    
frame=   48 fps= 10 q=22.0 size=N/A time=00:00:01.41 bitrate=N/A speed=0.307x    
frame=   50 fps=9.6 q=21.0 size=N/A time=00:00:01.41 bitrate=N/A speed=0.273x    
frame=   52 fps=8.9 q=22.0 size=N/A time=00:00:01.43 bitrate=N/A speed=0.248x    
frame=   56 fps=8.8 q=22.0 size=N/A time=00:00:01.62 bitrate=N/A speed=0.255x    
frame=   75 fps= 11 q=22.0 size=N/A time=00:00:02.32 bitrate=N/A speed=0.336x    
frame=   79 fps= 11 q=21.0 size=N/A time=00:00:02.34 bitrate=N/A speed=0.316x    
frame=   82 fps= 10 q=19.0 size=N/A time=00:00:02.55 bitrate=N/A speed=0.316x    
frame=   97 fps= 11 q=17.0 size=N/A time=00:00:03.01 bitrate=N/A speed=0.341x    
frame=  107 fps= 11 q=20.0 size=N/A time=00:00:03.25 bitrate=N/A speed=0.347x    
frame=  107 fps= 11 q=20.0 size=N/A time=00:00:03.29 bitrate=N/A speed=0.333x    
[hls @ 0x55b081359c40] Opening '/config/data/transcodes/a51ccbe751c49b0872a61c95ecc7e7470.ts' for writing
[hls @ 0x55b081359c40] Opening '/config/data/transcodes/a51ccbe751c49b0872a61c95ecc7e747.m3u8.tmp' for writing
frame=  109 fps= 10 q=22.0 size=N/A time=00:00:03.48 bitrate=N/A speed=0.332x    
frame=  113 fps=9.6 q=22.0 size=N/A time=00:00:03.48 bitrate=N/A speed=0.296x    
frame=  121 fps=9.9 q=21.0 size=N/A time=00:00:03.73 bitrate=N/A speed=0.305x    
frame=  139 fps= 11 q=19.0 size=N/A time=00:00:04.41 bitrate=N/A speed=0.344x    
frame=  152 fps= 11 q=19.0 size=N/A time=00:00:04.85 bitrate=N/A speed=0.364x    
frame=  153 fps= 11 q=21.0 size=N/A time=00:00:04.85 bitrate=N/A speed=0.349x    
frame=  161 fps= 11 q=20.0 size=N/A time=00:00:05.08 bitrate=N/A speed=0.338x    
frame=  162 fps= 10 q=20.0 size=N/A time=00:00:05.10 bitrate=N/A speed=0.326x    
frame=  168 fps= 10 q=19.0 size=N/A time=00:00:05.31 bitrate=N/A speed=0.321x    
frame=  172 fps= 10 q=19.0 size=N/A time=00:00:05.54 bitrate=N/A speed=0.323x    
frame=  174 fps=9.7 q=20.0 size=N/A time=00:00:05.54 bitrate=N/A speed=0.308x    
frame=  175 fps=9.3 q=18.0 size=N/A time=00:00:05.54 bitrate=N/A speed=0.296x    
[hls @ 0x55b081359c40] Opening '/config/data/transcodes/a51ccbe751c49b0872a61c95ecc7e7471.ts' for writing
[hls @ 0x55b081359c40] Opening '/config/data/transcodes/a51ccbe751c49b0872a61c95ecc7e747.m3u8.tmp' for writing
frame=  199 fps= 10 q=22.0 size=N/A time=00:00:06.47 bitrate=N/A speed=0.327x    
frame=  202 fps=9.9 q=20.0 size=N/A time=00:00:06.47 bitrate=N/A speed=0.317x    
frame=  206 fps=9.8 q=20.0 size=N/A time=00:00:06.71 bitrate=N/A speed=0.321x    
frame=  210 fps=9.8 q=20.0 size=N/A time=00:00:06.71 bitrate=N/A speed=0.312x    
frame=  218 fps=9.9 q=20.0 size=N/A time=00:00:06.94 bitrate=N/A speed=0.315x    
frame=  220 fps=9.7 q=21.0 size=N/A time=00:00:07.17 bitrate=N/A speed=0.317x    
frame=  225 fps=9.5 q=22.0 size=N/A time=00:00:07.19 bitrate=N/A speed=0.304x    
frame=  228 fps=9.4 q=21.0 size=N/A time=00:00:07.40 bitrate=N/A speed=0.304x    
frame=  231 fps=9.1 q=19.0 size=N/A time=00:00:07.40 bitrate=N/A speed=0.292x    
frame=  234 fps=9.0 q=21.0 size=N/A time=00:00:07.63 bitrate=N/A speed=0.294x    
frame=  235 fps=8.7 q=21.0 size=N/A time=00:00:07.63 bitrate=N/A speed=0.282x    
frame=  236 fps=8.3 q=19.0 size=N/A time=00:00:07.63 bitrate=N/A speed=0.269x    
frame=  239 fps=7.9 q=20.0 size=N/A time=00:00:07.63 bitrate=N/A speed=0.254x    
frame=  243 fps=7.9 q=20.0 size=N/A time=00:00:07.87 bitrate=N/A speed=0.256x    
frame=  250 fps=8.0 q=18.0 size=N/A time=00:00:08.10 bitrate=N/A speed=0.258x    
frame=  253 fps=7.9 q=21.0 size=N/A time=00:00:08.12 bitrate=N/A speed=0.255x    
frame=  256 fps=7.9 q=21.0 size=N/A time=00:00:08.33 bitrate=N/A speed=0.256x    
frame=  272 fps=8.2 q=20.0 size=N/A time=00:00:08.77 bitrate=N/A speed=0.265x    
frame=  279 fps=8.3 q=23.0 size=N/A time=00:00:09.03 bitrate=N/A speed=0.268x    
[hls @ 0x55b081359c40] Opening '/config/data/transcodes/a51ccbe751c49b0872a61c95ecc7e7472.ts' for writing
[hls @ 0x55b081359c40] Opening '/config/data/transcodes/a51ccbe751c49b0872a61c95ecc7e747.m3u8.tmp' for writing
frame=  288 fps=8.4 q=22.0 size=N/A time=00:00:09.28 bitrate=N/A speed=0.271x    
frame=  314 fps=9.0 q=20.0 size=N/A time=00:00:10.23 bitrate=N/A speed=0.295x    
frame=  322 fps=9.1 q=20.0 size=N/A time=00:00:10.47 bitrate=N/A speed=0.297x    
frame=  336 fps=9.4 q=23.0 size=N/A time=00:00:10.95 bitrate=N/A speed=0.306x    
frame=  348 fps=9.6 q=23.0 size=N/A time=00:00:11.42 bitrate=N/A speed=0.314x    
frame=  356 fps=9.6 q=23.0 size=N/A time=00:00:11.65 bitrate=N/A speed=0.315x    
frame=  373 fps=9.9 q=20.0 size=N/A time=00:00:12.14 bitrate=N/A speed=0.324x    
[hls @ 0x55b081359c40] Opening '/config/data/transcodes/a51ccbe751c49b0872a61c95ecc7e7473.ts' for writing
[hls @ 0x55b081359c40] Opening '/config/data/transcodes/a51ccbe751c49b0872a61c95ecc7e747.m3u8.tmp' for writing
frame=  389 fps= 10 q=23.0 size=N/A time=00:00:12.81 bitrate=N/A speed=0.337x    
frame=  408 fps= 11 q=23.0 size=N/A time=00:00:13.30 bitrate=N/A speed=0.345x    
frame=  440 fps= 11 q=24.0 size=N/A time=00:00:14.44 bitrate=N/A speed=0.37x    
[hls @ 0x55b081359c40] Opening '/config/data/transcodes/a51ccbe751c49b0872a61c95ecc7e7474.ts' for writing
[hls @ 0x55b081359c40] Opening '/config/data/transcodes/a51ccbe751c49b0872a61c95ecc7e747.m3u8.tmp' for writing
frame=  471 fps= 12 q=20.0 size=N/A time=00:00:15.39 bitrate=N/A speed=0.389x    
frame=  510 fps= 13 q=18.0 size=N/A time=00:00:16.76 bitrate=N/A speed=0.418x    
frame=  526 fps= 13 q=24.0 size=N/A time=00:00:17.25 bitrate=N/A speed=0.425x    
frame=  548 fps= 13 q=22.0 size=N/A time=00:00:17.97 bitrate=N/A speed=0.437x    
[hls @ 0x55b081359c40] Opening '/config/data/transcodes/a51ccbe751c49b0872a61c95ecc7e7475.ts' for writing
[hls @ 0x55b081359c40] Opening '/config/data/transcodes/a51ccbe751c49b0872a61c95ecc7e747.m3u8.tmp' for writing
frame=  561 fps= 13 q=23.0 size=N/A time=00:00:18.41 bitrate=N/A speed=0.44x    
frame=  566 fps= 13 q=24.0 size=N/A time=00:00:18.64 bitrate=N/A speed=0.44x    
frame=  569 fps= 13 q=24.0 size=N/A time=00:00:18.66 bitrate=N/A speed=0.435x    
frame=  574 fps= 13 q=23.0 size=N/A time=00:00:18.87 bitrate=N/A speed=0.434x    
frame=  576 fps= 13 q=25.0 size=N/A time=00:00:18.90 bitrate=N/A speed=0.429x    
frame=  578 fps= 13 q=22.0 size=N/A time=00:00:19.10 bitrate=N/A speed=0.428x    
frame=  582 fps= 13 q=21.0 size=N/A time=00:00:19.10 bitrate=N/A speed=0.422x    
frame=  587 fps= 13 q=23.0 size=N/A time=00:00:19.34 bitrate=N/A speed=0.422x    
frame=  589 fps= 13 q=24.0 size=N/A time=00:00:19.34 bitrate=N/A speed=0.416x    
frame=  590 fps= 12 q=22.0 size=N/A time=00:00:19.36 bitrate=N/A speed=0.41x    
frame=  598 fps= 13 q=22.0 size=N/A time=00:00:19.80 bitrate=N/A speed=0.415x    
frame=  605 fps= 13 q=23.0 size=N/A time=00:00:20.03 bitrate=N/A speed=0.415x    
frame=  613 fps= 13 q=23.0 size=N/A time=00:00:20.27 bitrate=N/A speed=0.415x    
frame=  620 fps= 13 q=23.0 size=N/A time=00:00:20.50 bitrate=N/A speed=0.416x    
frame=  631 fps= 13 q=25.0 size=N/A time=00:00:20.73 bitrate=N/A speed=0.416x    
frame=  642 fps= 13 q=24.0 size=N/A time=00:00:21.19 bitrate=N/A speed=0.42x    
[hls @ 0x55b081359c40] Opening '/config/data/transcodes/a51ccbe751c49b0872a61c95ecc7e7476.ts' for writing
[hls @ 0x55b081359c40] Opening '/config/data/transcodes/a51ccbe751c49b0872a61c95ecc7e747.m3u8.tmp' for writing
frame=  649 fps= 13 q=22.0 size=N/A time=00:00:21.43 bitrate=N/A speed=0.42x    
frame=  652 fps= 13 q=24.0 size=N/A time=00:00:21.43 bitrate=N/A speed=0.416x    
frame=  657 fps= 13 q=20.0 size=N/A time=00:00:21.66 bitrate=N/A speed=0.415x    
frame=  659 fps= 12 q=23.0 size=N/A time=00:00:21.68 bitrate=N/A speed=0.41x    
frame=  668 fps= 13 q=22.0 size=N/A time=00:00:22.12 bitrate=N/A speed=0.415x    
frame=  675 fps= 13 q=19.0 size=N/A time=00:00:22.33 bitrate=N/A speed=0.415x    
frame=  692 fps= 13 q=19.0 size=N/A time=00:00:22.80 bitrate=N/A speed=0.419x    
frame=  712 fps= 13 q=20.0 size=N/A time=00:00:23.49 bitrate=N/A speed=0.428x    
[hls @ 0x55b081359c40] Opening '/config/data/transcodes/a51ccbe751c49b0872a61c95ecc7e7477.ts' for writing
[hls @ 0x55b081359c40] Opening '/config/data/transcodes/a51ccbe751c49b0872a61c95ecc7e747.m3u8.tmp' for writing
frame=  739 fps= 13 q=24.0 size=N/A time=00:00:24.40 bitrate=N/A speed=0.44x    
frame=  776 fps= 14 q=18.0 size=N/A time=00:00:25.56 bitrate=N/A speed=0.456x    
frame=  796 fps= 14 q=21.0 size=N/A time=00:00:26.26 bitrate=N/A speed=0.464x    
frame=  821 fps= 14 q=22.0 size=N/A time=00:00:27.19 bitrate=N/A speed=0.475x    
[hls @ 0x55b081359c40] Opening '/config/data/transcodes/a51ccbe751c49b0872a61c95ecc7e7478.ts' for writing
[hls @ 0x55b081359c40] Opening '/config/data/transcodes/a51ccbe751c49b0872a61c95ecc7e747.m3u8.tmp' for writing
frame=  846 fps= 15 q=25.0 size=N/A time=00:00:27.91 bitrate=N/A speed=0.484x    
frame=  879 fps= 15 q=23.0 size=N/A time=00:00:29.04 bitrate=N/A speed=0.499x    
frame=  904 fps= 15 q=23.0 size=N/A time=00:00:29.83 bitrate=N/A speed=0.508x    
[hls @ 0x55b081359c40] Opening '/config/data/transcodes/a51ccbe751c49b0872a61c95ecc7e7479.ts' for writing
[hls @ 0x55b081359c40] Opening '/config/data/transcodes/a51ccbe751c49b0872a61c95ecc7e747.m3u8.tmp' for writing
frame=  925 fps= 16 q=24.0 size=N/A time=00:00:30.53 bitrate=N/A speed=0.515x    
frame=  942 fps= 16 q=24.0 size=N/A time=00:00:31.23 bitrate=N/A speed=0.523x    
frame=  959 fps= 16 q=24.0 size=N/A time=00:00:31.69 bitrate=N/A speed=0.525x    
frame=  976 fps= 16 q=22.0 size=N/A time=00:00:32.39 bitrate=N/A speed=0.531x    
frame=  987 fps= 16 q=24.0 size=N/A time=00:00:32.62 bitrate=N/A speed=0.53x    
frame= 1000 fps= 16 q=24.0 size=N/A time=00:00:33.08 bitrate=N/A speed=0.533x    
[hls @ 0x55b081359c40] Opening '/config/data/transcodes/a51ccbe751c49b0872a61c95ecc7e74710.ts' for writing
[hls @ 0x55b081359c40] Opening '/config/data/transcodes/a51ccbe751c49b0872a61c95ecc7e747.m3u8.tmp' for writing
frame= 1015 fps= 16 q=24.0 size=N/A time=00:00:33.57 bitrate=N/A speed=0.536x    
frame= 1032 fps= 16 q=24.0 size=N/A time=00:00:34.24 bitrate=N/A speed=0.542x    
frame= 1040 fps= 16 q=22.0 size=N/A time=00:00:34.48 bitrate=N/A speed=0.54x    
frame= 1048 fps= 16 q=23.0 size=N/A time=00:00:34.71 bitrate=N/A speed=0.539x    
frame= 1057 fps= 16 q=22.0 size=N/A time=00:00:34.94 bitrate=N/A speed=0.538x    
frame= 1064 fps= 16 q=22.0 size=N/A time=00:00:35.17 bitrate=N/A speed=0.537x    
frame= 1075 fps= 16 q=22.0 size=N/A time=00:00:35.64 bitrate=N/A speed=0.54x    
frame= 1085 fps= 16 q=24.0 size=N/A time=00:00:35.87 bitrate=N/A speed=0.539x    
frame= 1094 fps= 16 q=20.0 size=N/A time=00:00:36.33 bitrate=N/A speed=0.538x    
[hls @ 0x55b081359c40] Opening '/config/data/transcodes/a51ccbe751c49b0872a61c95ecc7e74711.ts' for writing
[hls @ 0x55b081359c40] Opening '/config/data/transcodes/a51ccbe751c49b0872a61c95ecc7e747.m3u8.tmp' for writing
frame= 1098 fps= 16 q=25.0 size=N/A time=00:00:36.33 bitrate=N/A speed=0.533x    
frame= 1105 fps= 16 q=24.0 size=N/A time=00:00:36.57 bitrate=N/A speed=0.532x    
frame= 1110 fps= 16 q=24.0 size=N/A time=00:00:36.80 bitrate=N/A speed=0.531x    
frame= 1125 fps= 16 q=22.0 size=N/A time=00:00:37.29 bitrate=N/A speed=0.534x    
frame= 1141 fps= 16 q=24.0 size=N/A time=00:00:37.75 bitrate=N/A speed=0.537x    
frame= 1152 fps= 16 q=22.0 size=N/A time=00:00:38.19 bitrate=N/A speed=0.539x    
frame= 1155 fps= 16 q=22.0 size=N/A time=00:00:38.24 bitrate=N/A speed=0.535x    
frame= 1169 fps= 16 q=22.0 size=N/A time=00:00:38.66 bitrate=N/A speed=0.537x    
[hls @ 0x55b081359c40] Opening '/config/data/transcodes/a51ccbe751c49b0872a61c95ecc7e74712.ts' for writing
[hls @ 0x55b081359c40] Opening '/config/data/transcodes/a51ccbe751c49b0872a61c95ecc7e747.m3u8.tmp' for writing
frame= 1187 fps= 16 q=24.0 size=N/A time=00:00:39.35 bitrate=N/A speed=0.543x    
frame= 1200 fps= 16 q=22.0 size=N/A time=00:00:39.84 bitrate=N/A speed=0.545x    
frame= 1216 fps= 17 q=22.0 size=N/A time=00:00:40.30 bitrate=N/A speed=0.547x    
frame= 1223 fps= 16 q=24.0 size=N/A time=00:00:40.54 bitrate=N/A speed=0.547x    
frame= 1231 fps= 16 q=22.0 size=N/A time=00:00:40.77 bitrate=N/A speed=0.546x    
frame= 1239 fps= 16 q=24.0 size=N/A time=00:00:41.00 bitrate=N/A speed=0.545x    
frame= 1244 fps= 16 q=22.0 size=N/A time=00:00:41.23 bitrate=N/A speed=0.544x    
frame= 1255 fps= 16 q=23.0 size=N/A time=00:00:41.67 bitrate=N/A speed=0.546x    
frame= 1274 fps= 17 q=24.0 size=N/A time=00:00:42.19 bitrate=N/A speed=0.549x    
[hls @ 0x55b081359c40] Opening '/config/data/transcodes/a51ccbe751c49b0872a61c95ecc7e74713.ts' for writing
[hls @ 0x55b081359c40] Opening '/config/data/transcodes/a51ccbe751c49b0872a61c95ecc7e747.m3u8.tmp' for writing
frame= 1280 fps= 17 q=23.0 size=N/A time=00:00:42.39 bitrate=N/A speed=0.547x    
frame= 1294 fps= 17 q=24.0 size=N/A time=00:00:42.86 bitrate=N/A speed=0.549x    
frame= 1301 fps= 17 q=21.0 size=N/A time=00:00:43.09 bitrate=N/A speed=0.548x    
frame= 1306 fps= 17 q=24.0 size=N/A time=00:00:43.32 bitrate=N/A speed=0.548x    
frame= 1308 fps= 16 q=23.0 size=N/A time=00:00:43.32 bitrate=N/A speed=0.541x    
frame= 1311 fps= 16 q=22.0 size=N/A time=00:00:43.56 bitrate=N/A speed=0.541x    
frame= 1320 fps= 16 q=24.0 size=N/A time=00:00:43.79 bitrate=N/A speed=0.54x    
frame= 1328 fps= 16 q=23.0 size=N/A time=00:00:44.02 bitrate=N/A speed=0.54x    
frame= 1336 fps= 16 q=21.0 size=N/A time=00:00:44.23 bitrate=N/A speed=0.539x    
frame= 1363 fps= 17 q=24.0 size=N/A time=00:00:45.18 bitrate=N/A speed=0.547x    
[hls @ 0x55b081359c40] Opening '/config/data/transcodes/a51ccbe751c49b0872a61c95ecc7e74714.ts' for writing
[hls @ 0x55b081359c40] Opening '/config/data/transcodes/a51ccbe751c49b0872a61c95ecc7e747.m3u8.tmp' for writing
frame= 1372 fps= 16 q=22.0 size=N/A time=00:00:45.62 bitrate=N/A speed=0.548x    
frame= 1411 fps= 17 q=22.0 size=N/A time=00:00:46.81 bitrate=N/A speed=0.559x    
frame= 1420 fps= 17 q=20.0 size=N/A time=00:00:47.06 bitrate=N/A speed=0.559x    
frame= 1427 fps= 17 q=20.0 size=N/A time=00:00:47.29 bitrate=N/A speed=0.558x    
frame= 1441 fps= 17 q=18.0 size=N/A time=00:00:47.73 bitrate=N/A speed=0.56x    
frame= 1453 fps= 17 q=19.0 size=N/A time=00:00:48.20 bitrate=N/A speed=0.562x    
[hls @ 0x55b081359c40] Opening '/config/data/transcodes/a51ccbe751c49b0872a61c95ecc7e74715.ts' for writing
[hls @ 0x55b081359c40] Opening '/config/data/transcodes/a51ccbe751c49b0872a61c95ecc7e747.m3u8.tmp' for writing
frame= 1467 fps= 17 q=21.0 size=N/A time=00:00:48.66 bitrate=N/A speed=0.564x    
frame= 1494 fps= 17 q=18.0 size=N/A time=00:00:49.59 bitrate=N/A speed=0.571x    
frame= 1511 fps= 17 q=18.0 size=N/A time=00:00:50.08 bitrate=N/A speed=0.573x    
frame= 1539 fps= 18 q=18.0 size=N/A time=00:00:51.01 bitrate=N/A speed=0.581x    
[hls @ 0x55b081359c40] Opening '/config/data/transcodes/a51ccbe751c49b0872a61c95ecc7e74716.ts' for writing
[hls @ 0x55b081359c40] Opening '/config/data/transcodes/a51ccbe751c49b0872a61c95ecc7e747.m3u8.tmp' for writing
frame= 1551 fps= 18 q=21.0 size=N/A time=00:00:51.45 bitrate=N/A speed=0.582x    
frame= 1578 fps= 18 q=19.0 size=N/A time=00:00:52.38 bitrate=N/A speed=0.589x    
frame= 1615 fps= 18 q=20.0 size=N/A time=00:00:53.54 bitrate=N/A speed=0.598x    
[hls @ 0x55b081359c40] Opening '/config/data/transcodes/a51ccbe751c49b0872a61c95ecc7e74717.ts' for writing
[hls @ 0x55b081359c40] Opening '/config/data/transcodes/a51ccbe751c49b0872a61c95ecc7e747.m3u8.tmp' for writing
frame= 1655 fps= 18 q=20.0 size=N/A time=00:00:54.96 bitrate=N/A speed=0.611x    
frame= 1677 fps= 19 q=21.0 size=N/A time=00:00:55.65 bitrate=N/A speed=0.615x    
frame= 1684 fps= 18 q=23.0 size=N/A time=00:00:55.88 bitrate=N/A speed=0.613x    
frame= 1688 fps= 18 q=21.0 size=N/A time=00:00:56.09 bitrate=N/A speed=0.611x    
frame= 1693 fps= 18 q=22.0 size=N/A time=00:00:56.33 bitrate=N/A speed=0.61x    
frame= 1701 fps= 18 q=20.0 size=N/A time=00:00:56.56 bitrate=N/A speed=0.609x    
frame= 1716 fps= 18 q=20.0 size=N/A time=00:00:57.02 bitrate=N/A speed=0.61x    
frame= 1725 fps= 18 q=17.0 size=N/A time=00:00:57.25 bitrate=N/A speed=0.607x    
[hls @ 0x55b081359c40] Opening '/config/data/transcodes/a51ccbe751c49b0872a61c95ecc7e74718.ts' for writing
[hls @ 0x55b081359c40] Opening '/config/data/transcodes/a51ccbe751c49b0872a61c95ecc7e747.m3u8.tmp' for writing
frame= 1752 fps= 18 q=20.0 size=N/A time=00:00:58.18 bitrate=N/A speed=0.613x    
frame= 1765 fps= 19 q=21.0 size=N/A time=00:00:58.67 bitrate=N/A speed=0.615x    
frame= 1774 fps= 18 q=17.0 size=N/A time=00:00:58.90 bitrate=N/A speed=0.612x    
frame= 1780 fps= 18 q=20.0 size=N/A time=00:00:59.11 bitrate=N/A speed=0.609x    
frame= 1782 fps= 18 q=17.0 size=N/A time=00:00:59.14 bitrate=N/A speed=0.605x    
frame= 1786 fps= 18 q=18.0 size=N/A time=00:00:59.34 bitrate=N/A speed=0.603x    

[q] command received. Exiting.

[hls @ 0x55b081359c40] Opening '/config/data/transcodes/a51ccbe751c49b0872a61c95ecc7e74719.ts' for writing
[hls @ 0x55b081359c40] Opening '/config/data/transcodes/a51ccbe751c49b0872a61c95ecc7e747.m3u8.tmp' for writing
frame= 1794 fps= 18 q=-1.0 Lsize=N/A time=00:00:59.58 bitrate=N/A speed= 0.6x    
video:12911kB audio:701kB subtitle:0kB other streams:0kB global headers:0kB muxing overhead: unknown
[libx264 @ 0x55b081357400] frame I:20    Avg QP: 9.64  size: 33488
[libx264 @ 0x55b081357400] frame P:589   Avg QP:13.82  size: 13176
[libx264 @ 0x55b081357400] frame B:1185  Avg QP:16.25  size:  4043
[libx264 @ 0x55b081357400] consecutive B-frames:  7.4% 10.0% 11.0% 71.6%
[libx264 @ 0x55b081357400] mb I  I16..4: 72.9%  0.0% 27.1%
[libx264 @ 0x55b081357400] mb P  I16..4: 25.7%  0.0%  0.0%  P16..4: 21.3%  0.0%  0.0%  0.0%  0.0%    skip:53.1%
[libx264 @ 0x55b081357400] mb B  I16..4:  1.2%  0.0%  0.0%  B16..8: 11.4%  0.0%  0.0%  direct: 8.9%  skip:78.5%  L0:44.0% L1:46.0% BI: 9.9%
[libx264 @ 0x55b081357400] coded y,uvDC,uvAC intra: 17.9% 47.4% 39.4% inter: 4.9% 13.4% 4.2%
[libx264 @ 0x55b081357400] i16 v,h,dc,p: 78% 18%  3%  1%
[libx264 @ 0x55b081357400] i4 v,h,dc,ddl,ddr,vr,hd,vl,hu: 30% 29% 12%  7%  4%  4%  4%  4%  5%
[libx264 @ 0x55b081357400] i8c dc,h,v,p: 50% 29% 17%  4%
[libx264 @ 0x55b081357400] Weighted P-Frames: Y:0.7% UV:0.5%
[libx264 @ 0x55b081357400] kb/s:1766.95